<svg aria-label="标记" class="x1lliihq x1n2onr6 x9bdzbf" fill="currentColor" height="12" role="img" viewBox="0 0 24 24" width="12" xmlns="http://www.w3.org/2000/svg"><title>标记</title><path d="M12 12c3.032 0 5.5-2.468 5.5-5.5S15.032 1 12 1a5.507 5.507 0 0 0-5.5 5.5C6.5 9.532 8.968 12 12 12Zm9.553 6.27C19.396 15.283 15.825 13.5 12 13.5c-3.824 0-7.396 1.782-9.552 4.768a2.317 2.317 0 0 0-.315 2.149 2.45 2.45 0 0 0 1.665 1.537C5.517 22.431 8.335 23 12 23c3.668 0 6.479-.565 8.19-1.04a2.464 2.464 0 0 0 1.678-1.544 2.312 2.312 0 0 0-.315-2.146Z" fill="currentColor"></path></svg>