<svg xmlns="http://www.w3.org/2000/svg" width="100%" height="100%" id="translatorForChrome-history-img" class="translatorForChrome-tab-container-icon" viewBox="0 0 30 30" fill="none">
                    <mask id="path-1-inside-1" fill="white">
                    <path fill-rule="evenodd" clip-rule="evenodd" d="M7.81799 22.1428C7.43217 21.7099 7.54012 21.0491 8.00939 20.7084C8.47867 20.3677 9.13088 20.4775 9.5274 20.9006C10.6695 22.1194 12.1554 22.9762 13.7997 23.3489C15.7872 23.7994 17.8707 23.5121 19.662 22.5403C21.4534 21.5686 22.8303 19.9788 23.5364 18.0671C24.2425 16.1555 24.2295 14.0523 23.4999 12.1494C22.7703 10.2466 21.3739 8.67391 19.5707 7.72435C17.7675 6.77478 15.6807 6.51312 13.6989 6.9881C11.7171 7.46309 9.97557 8.64233 8.79877 10.3061C8.21701 11.1286 7.79288 12.0418 7.53834 12.9999H8.87221C9.40299 12.9999 9.67236 13.6384 9.30196 14.0186L6.8271 16.5588C6.59159 16.8005 6.20311 16.8005 5.96759 16.5588L3.49273 14.0186C3.12233 13.6384 3.39171 12.9999 3.92249 12.9999H5.38062C5.67321 11.606 6.24866 10.2749 7.08428 9.09347C8.55529 7.01373 10.7322 5.53967 13.2094 4.94594C15.6866 4.35221 18.2952 4.67929 20.5492 5.86624C22.8032 7.0532 24.5487 9.01908 25.4607 11.3976C26.3727 13.7762 26.3889 16.4051 25.5063 18.7947C24.6237 21.1843 22.9025 23.1716 20.6634 24.3862C18.4242 25.6009 15.8199 25.9601 13.3355 25.397C11.1939 24.9115 9.26745 23.7692 7.81799 22.1428ZM14 10.9999C14 10.4476 14.4477 9.99991 15 9.99991C15.5523 9.99991 16 10.4476 16 10.9999V15.5773L18.464 16.9999C18.9423 17.2761 19.1062 17.8876 18.8301 18.3659C18.5539 18.8442 17.9423 19.0081 17.464 18.732L14.5063 17.0243C14.1734 16.8321 13.9928 16.4774 14.0069 16.1182C14.0023 16.0794 14 16.0399 14 15.9999V10.9999Z"></path>
                    </mask>
                    <path fill-rule="evenodd" clip-rule="evenodd" d="M7.81799 22.1428C7.43217 21.7099 7.54012 21.0491 8.00939 20.7084C8.47867 20.3677 9.13088 20.4775 9.5274 20.9006C10.6695 22.1194 12.1554 22.9762 13.7997 23.3489C15.7872 23.7994 17.8707 23.5121 19.662 22.5403C21.4534 21.5686 22.8303 19.9788 23.5364 18.0671C24.2425 16.1555 24.2295 14.0523 23.4999 12.1494C22.7703 10.2466 21.3739 8.67391 19.5707 7.72435C17.7675 6.77478 15.6807 6.51312 13.6989 6.9881C11.7171 7.46309 9.97557 8.64233 8.79877 10.3061C8.21701 11.1286 7.79288 12.0418 7.53834 12.9999H8.87221C9.40299 12.9999 9.67236 13.6384 9.30196 14.0186L6.8271 16.5588C6.59159 16.8005 6.20311 16.8005 5.96759 16.5588L3.49273 14.0186C3.12233 13.6384 3.39171 12.9999 3.92249 12.9999H5.38062C5.67321 11.606 6.24866 10.2749 7.08428 9.09347C8.55529 7.01373 10.7322 5.53967 13.2094 4.94594C15.6866 4.35221 18.2952 4.67929 20.5492 5.86624C22.8032 7.0532 24.5487 9.01908 25.4607 11.3976C26.3727 13.7762 26.3889 16.4051 25.5063 18.7947C24.6237 21.1843 22.9025 23.1716 20.6634 24.3862C18.4242 25.6009 15.8199 25.9601 13.3355 25.397C11.1939 24.9115 9.26745 23.7692 7.81799 22.1428ZM14 10.9999C14 10.4476 14.4477 9.99991 15 9.99991C15.5523 9.99991 16 10.4476 16 10.9999V15.5773L18.464 16.9999C18.9423 17.2761 19.1062 17.8876 18.8301 18.3659C18.5539 18.8442 17.9423 19.0081 17.464 18.732L14.5063 17.0243C14.1734 16.8321 13.9928 16.4774 14.0069 16.1182C14.0023 16.0794 14 16.0399 14 15.9999V10.9999Z" fill="#FCFCFCFF"></path>
                    <path d="M7.81799 22.1428L8.56455 21.4775H8.56455L7.81799 22.1428ZM9.5274 20.9006L8.79772 21.5844H8.79772L9.5274 20.9006ZM13.7997 23.3489L14.0208 22.3737L13.7997 23.3489ZM19.662 22.5403L20.1389 23.4193L19.662 22.5403ZM23.5364 18.0671L24.4745 18.4136V18.4136L23.5364 18.0671ZM23.4999 12.1494L24.4337 11.7914V11.7914L23.4999 12.1494ZM19.5707 7.72435L19.1048 8.60916V8.60916L19.5707 7.72435ZM13.6989 6.9881L13.4658 6.01564L13.6989 6.9881ZM8.79877 10.3061L7.98235 9.72867H7.98235L8.79877 10.3061ZM7.53834 12.9999L6.57187 12.7431L6.23798 13.9999H7.53834V12.9999ZM9.30196 14.0186L8.58571 13.3208H8.58571L9.30196 14.0186ZM6.8271 16.5588L7.54336 17.2566H7.54336L6.8271 16.5588ZM5.96759 16.5588L5.25133 17.2566H5.25134L5.96759 16.5588ZM3.49273 14.0186L2.77647 14.7164H2.77647L3.49273 14.0186ZM5.38062 12.9999V13.9999H6.19251L6.3593 13.2053L5.38062 12.9999ZM7.08428 9.09347L6.26786 8.51601V8.51602L7.08428 9.09347ZM13.2094 4.94594L13.4425 5.9184L13.2094 4.94594ZM20.5492 5.86624L21.0152 4.98143V4.98143L20.5492 5.86624ZM25.4607 11.3976L26.3945 11.0396V11.0396L25.4607 11.3976ZM25.5063 18.7947L26.4444 19.1412V19.1412L25.5063 18.7947ZM13.3355 25.397L13.5566 24.4217L13.5566 24.4217L13.3355 25.397ZM16 15.5773H15V16.1546L15.5 16.4433L16 15.5773ZM18.464 16.9999L17.964 17.8659L18.464 16.9999ZM18.8301 18.3659L17.964 17.8659V17.8659L18.8301 18.3659ZM17.464 18.732L16.964 19.598L16.964 19.598L17.464 18.732ZM14.5063 17.0243L15.0063 16.1583L15.0063 16.1583L14.5063 17.0243ZM14.0069 16.1182L15.0062 16.1574L15.0092 16.0791L15 16.0012L14.0069 16.1182ZM7.42192 19.8992C6.53003 20.5467 6.24708 21.8831 7.07144 22.8081L8.56455 21.4775C8.56628 21.4794 8.56937 21.4834 8.57263 21.4893C8.57585 21.4952 8.57846 21.5015 8.58029 21.5079C8.58398 21.5208 8.5834 21.5295 8.58298 21.5325C8.58238 21.5366 8.5827 21.5279 8.59687 21.5177L7.42192 19.8992ZM10.2571 20.2168C9.56976 19.4834 8.35983 19.2183 7.42192 19.8992L8.59687 21.5177C8.60365 21.5127 8.61897 21.5031 8.65789 21.5085C8.70174 21.5146 8.75527 21.5391 8.79772 21.5844L10.2571 20.2168ZM14.0208 22.3737C12.5722 22.0453 11.2632 21.2905 10.2571 20.2168L8.79772 21.5844C10.0758 22.9482 11.7385 23.9071 13.5787 24.3242L14.0208 22.3737ZM19.1852 21.6613C17.6072 22.5174 15.7717 22.7706 14.0208 22.3737L13.5787 24.3242C15.8028 24.8283 18.1343 24.5067 20.1389 23.4193L19.1852 21.6613ZM22.5984 17.7207C21.9763 19.4048 20.7633 20.8053 19.1852 21.6613L20.1389 23.4193C22.1434 22.3319 23.6843 20.5529 24.4745 18.4136L22.5984 17.7207ZM22.5662 12.5075C23.209 14.1838 23.2204 16.0366 22.5984 17.7207L24.4745 18.4136C25.2646 16.2743 25.2501 13.9208 24.4337 11.7914L22.5662 12.5075ZM19.1048 8.60916C20.6933 9.44568 21.9235 10.8312 22.5662 12.5075L24.4337 11.7914C23.6172 9.66208 22.0545 7.90214 20.0367 6.83954L19.1048 8.60916ZM13.932 7.96056C15.6778 7.54212 17.5163 7.77263 19.1048 8.60916L20.0367 6.83954C18.0188 5.77693 15.6835 5.48411 13.4658 6.01564L13.932 7.96056ZM9.61519 10.8836C10.6519 9.41786 12.1861 8.379 13.932 7.96056L13.4658 6.01564C11.2481 6.54718 9.29925 7.86681 7.98235 9.72867L9.61519 10.8836ZM8.50481 13.2567C8.72905 12.4126 9.10268 11.6082 9.61519 10.8836L7.98235 9.72867C7.33133 10.6491 6.8567 11.671 6.57187 12.7431L8.50481 13.2567ZM8.87221 11.9999H7.53834V13.9999H8.87221V11.9999ZM10.0182 14.7164C11.006 13.7026 10.2876 11.9999 8.87221 11.9999V13.9999C8.51835 13.9999 8.33877 13.5742 8.58571 13.3208L10.0182 14.7164ZM7.54336 17.2566L10.0182 14.7164L8.58571 13.3208L6.11084 15.861L7.54336 17.2566ZM5.25134 17.2566C5.87937 17.9013 6.91532 17.9013 7.54336 17.2566L6.11085 15.861C6.26785 15.6998 6.52684 15.6998 6.68385 15.861L5.25134 17.2566ZM2.77647 14.7164L5.25133 17.2566L6.68385 15.861L4.20899 13.3208L2.77647 14.7164ZM3.92249 11.9999C2.50707 11.9999 1.78874 13.7026 2.77647 14.7164L4.20899 13.3208C4.45592 13.5742 4.27634 13.9999 3.92249 13.9999V11.9999ZM5.38062 11.9999H3.92249V13.9999H5.38062V11.9999ZM6.26786 8.51602C5.35265 9.80996 4.72239 11.2679 4.40195 12.7945L6.3593 13.2053C6.62403 11.9441 7.14467 10.7398 7.90071 9.67093L6.26786 8.51602ZM12.9763 3.97348C10.2632 4.62376 7.87896 6.2382 6.26786 8.51601L7.90071 9.67093C9.23161 7.78925 11.2012 6.45559 13.4425 5.9184L12.9763 3.97348ZM21.0152 4.98143C18.5465 3.68143 15.6895 3.3232 12.9763 3.97348L13.4425 5.9184C15.6838 5.38121 18.044 5.67714 20.0833 6.75105L21.0152 4.98143ZM26.3945 11.0396C25.3956 8.43454 23.4838 6.28143 21.0152 4.98143L20.0833 6.75105C22.1225 7.82497 23.7019 9.60362 24.527 11.7556L26.3945 11.0396ZM26.4444 19.1412C27.4111 16.524 27.3933 13.6447 26.3945 11.0396L24.527 11.7556C25.3522 13.9076 25.3668 16.2862 24.5683 18.4483L26.4444 19.1412ZM21.1402 25.2652C23.5926 23.9349 25.4777 21.7584 26.4444 19.1412L24.5683 18.4483C23.7697 20.6103 22.2124 22.4083 20.1866 23.5072L21.1402 25.2652ZM13.1144 26.3722C15.8354 26.989 18.6878 26.5956 21.1402 25.2652L20.1866 23.5072C18.1607 24.6062 15.8043 24.9312 13.5566 24.4217L13.1144 26.3722ZM7.07144 22.8081C8.65895 24.5895 10.7689 25.8405 13.1144 26.3722L13.5566 24.4217C11.619 23.9825 9.87596 22.949 8.56455 21.4775L7.07144 22.8081ZM15 8.99991C13.8954 8.99991 13 9.89534 13 10.9999H15V8.99991ZM17 10.9999C17 9.89534 16.1046 8.99991 15 8.99991V10.9999H17ZM17 15.5773V10.9999H15V15.5773H17ZM15.5 16.4433L17.964 17.8659L18.964 16.1339L16.5 14.7113L15.5 16.4433ZM17.964 17.8659L19.6961 18.8659C20.2484 17.9094 19.9206 16.6862 18.964 16.1339L17.964 17.8659ZM17.964 17.8659L17.964 17.8659L16.964 19.598C17.9206 20.1503 19.1438 19.8225 19.6961 18.8659L17.964 17.8659ZM17.964 17.8659L15.0063 16.1583L14.0063 17.8903L16.964 19.598L17.964 17.8659ZM15.0063 16.1583L15.0062 16.1574L13.0077 16.0791C12.9796 16.7945 13.3393 17.5052 14.0063 17.8903L15.0063 16.1583ZM13 15.9999C13 16.0792 13.0047 16.1578 13.0138 16.2353L15 16.0012C15 16.0011 15 16.0007 15 15.9999H13ZM13 10.9999V15.9999H15V10.9999H13Z" fill="#FCFCFCFF" mask="url(#path-1-inside-1)"></path>
                    </svg>