<svg xmlns="http://www.w3.org/2000/svg" width="22" height="21" viewBox="0 0 22 21" fill="none" class="translatorForChrome-disable-border translatorForChrome-red-svg translatorForChrome-bookmark-icon translatorForChrome-icon replaced-svg">
                <path d="M10.0469 2.00105C10.3422 1.0713 11.6578 1.07131 11.9531 2.00106L13.4288 6.64786C13.5615 7.06543 13.9505 7.34806 14.3886 7.34515L19.264 7.31273C20.2395 7.30625 20.646 8.55748 19.853 9.12562L15.8897 11.9651C15.5335 12.2202 15.3849 12.6775 15.5231 13.0933L17.0605 17.7201C17.3681 18.6458 16.3038 19.4191 15.5184 18.8405L11.5932 15.9486C11.2404 15.6887 10.7596 15.6887 10.4068 15.9486L6.48162 18.8405C5.69625 19.4191 4.63188 18.6458 4.93949 17.7201L6.4769 13.0933C6.61506 12.6775 6.46647 12.2202 6.11031 11.9651L2.14698 9.12562C1.35398 8.55749 1.76053 7.30625 2.73602 7.31273L7.61142 7.34515C8.04954 7.34806 8.43854 7.06544 8.57116 6.64786L10.0469 2.00105Z" stroke="#858E99" stroke-width="2"></path>
                </svg>