<svg aria-label="其他 Meta 旗下产品" class="x1lliihq x1n2onr6 x5n08af" fill="currentColor" height="24" role="img" viewBox="0 0 24 24" width="24" xmlns="http://www.w3.org/2000/svg"><title>其他 Meta 旗下产品</title><path d="M9.5 11h5c1.379 0 2.5-1.122 2.5-2.5v-5C17 2.122 15.879 1 14.5 1h-5A2.503 2.503 0 0 0 7 3.5v5C7 9.878 8.12 11 9.5 11ZM9 3.5a.5.5 0 0 1 .5-.5h5a.5.5 0 0 1 .5.5v5a.5.5 0 0 1-.5.5h-5a.5.5 0 0 1-.5-.5v-5ZM8.499 13h-5a2.503 2.503 0 0 0-2.5 2.5v5c0 1.378 1.12 2.5 2.5 2.5h5c1.379 0 2.5-1.122 2.5-2.5v-5c0-1.378-1.121-2.5-2.5-2.5Zm.5 7.5a.5.5 0 0 1-.5.5h-5a.5.5 0 0 1-.5-.5v-5a.5.5 0 0 1 .5-.5h5a.5.5 0 0 1 .5.5v5Zm11.5-7.5h-5a2.503 2.503 0 0 0-2.5 2.5v5c0 1.378 1.12 2.5 2.5 2.5h5c1.379 0 2.5-1.122 2.5-2.5v-5c0-1.378-1.121-2.5-2.5-2.5Zm.5 7.5a.5.5 0 0 1-.5.5h-5a.5.5 0 0 1-.5-.5v-5a.5.5 0 0 1 .5-.5h5a.5.5 0 0 1 .5.5v5Z"></path></svg>